<?xml version="1.0" encoding="UTF-8"?>
<svg id="Layer_1" data-name="Layer 1" xmlns="http://www.w3.org/2000/svg" xmlns:xlink="http://www.w3.org/1999/xlink" viewBox="0 0 600 600">
  <defs>
    <style>
      .cls-1 {
        fill: none;
      }

      .cls-2 {
        fill: #317cff;
      }

      .cls-3 {
        clip-path: url(#clippath);
      }
    </style>
    <clipPath id="clippath">
      <rect class="cls-1" x="115.92" y="40.09" width="378.1" height="523.82"/>
    </clipPath>
  </defs>
  <g class="cls-3">
    <path class="cls-2" d="M261.09,161.97c0,103.46,114.84,211.8,114.84,288.72,0,51.46-47.13,94.8-118.09,94.8-53.63,0-106.71-36.29-106.71-107.26,0-53.63,37.92-81.8,74.21-81.8s60.13,23.83,60.13,49.29c0,27.08-18.42,38.46-32.5,38.46-18.42,0-16.25-26.54-26.54-26.54-15.71,0-23.83,17.33-23.83,30.88s11.92,29.79,35.75,29.79c36.84,0,66.09-24.92,66.09-67.17,0-32.5-23.83-69.34-77.46-69.34-61.75,0-111.05,45.5-111.05,105.63,0,56.34,50.92,116.46,138.13,116.46,105.09,0,166.84-59.59,166.84-132.71,0-104.55-120.26-197.72-120.26-290.35,0-47.67,36.29-83.42,91.55-83.42,47.67,0,74.75,25.46,74.75,52,0,20.04-13.54,28.71-27.63,28.71-11.92,0-21.67-10.29-30.88-10.29-3.25,0-10.29,2.71-10.29,14.08,0,22.21,17.33,34.67,38.46,34.67,24.38,0,57.42-15.71,57.42-58.5,0-31.42-28.71-78-102.92-78-86.13,0-130.01,59.59-130.01,121.88"/>
  </g>
</svg>